<svg version="1.1" xmlns="http://www.w3.org/2000/svg" x="0px" y="0px" viewBox="0 0 270.75 305.25" xml:space="preserve" enable-background="new 0 0 270.75 305.25"><style type="text/css">
	.st0{enable-background:new    ;}
	.st1{fill-rule:evenodd;clip-rule:evenodd;fill:#FFFFFF;}
	.st2{fill:#1A1A1A;}
	.st3{fill-rule:evenodd;clip-rule:evenodd;fill:#A3620A;}
	.st4{fill:#FFFFFF;}
</style><g class="st0"><rect x="0.375" y="-0.375" class="st1" width="270" height="306"/></g><path class="st2" d="M152.319 30.531l0 82.9v5h2.779c10.757 12.137 72.035 83.545 86.225 112.385 1.608 3.268 2.083 5.872 1.302 7.142 -1.04 1.694-4.709 2.304-6.194 2.322H34.255c-1.139 0-4.791-0.558-5.848-2.268 -0.881-1.426-0.324-4.369 1.529-8.076 15.742-31.484 86.479-112.398 87.192-113.212l1.239-1.414v-1.88 -82.9H152.319M157.319 25.531h-43.951v87.9c0 0-71.688 81.842-87.903 114.27 -8.79 17.58 8.79 17.58 8.79 17.58h202.177c0 0 17.581 0 9.378-16.672 -15.947-32.413-88.332-115.178-88.491-115.178 0 0 0 0 0 0V25.531L157.319 25.531z"/><polygon class="st3" points="179.25,154.5 92.25,154.5 32.25,233.25 92.25,233.25 179.25,233.25 239.25,233.25    "/><path class="st4" d="M96.75 179.25c-8.284 0-15 6.716-15 15 0 8.284 6.716 15 15 15 8.284 0 15-6.716 15-15C111.75 185.966 105.034 179.25 96.75 179.25zM141.375 177c3.107 0 5.625-2.518 5.625-5.625 0-3.107-2.518-5.625-5.625-5.625 -3.107 0-5.625 2.518-5.625 5.625C135.75 174.482 138.268 177 141.375 177zM135.75 201c-6.213 0-11.25 5.037-11.25 11.25s5.037 11.25 11.25 11.25S147 218.463 147 212.25 141.963 201 135.75 201z"/><path d="M35.813 279.75v-2.754h2.473v-10.793h-2.473v-2.754h7.723c1.625 0 2.934 0.1 3.926 0.299s1.941 0.641 2.848 1.324 1.633 1.6 2.18 2.748 0.82 2.422 0.82 3.82c0 1.133-0.191 2.213-0.574 3.24s-0.857 1.855-1.424 2.484 -1.244 1.129-2.033 1.5 -1.514 0.611-2.174 0.721 -1.682 0.164-3.064 0.164H35.813zM42.516 276.996h1.02c1.234 0 2.213-0.16 2.936-0.48s1.303-0.885 1.74-1.693 0.656-1.865 0.656-3.17c0-1.242-0.221-2.297-0.662-3.164s-1.039-1.465-1.793-1.793 -1.713-0.492-2.877-0.492h-1.02V276.996zM55.5 271.02v-2.613h5.344v8.73h1.688v2.613H55.5v-2.613h1.723v-6.117H55.5zM57.094 265.154c0-0.545 0.193-1.013 0.58-1.402 0.387-0.389 0.854-0.584 1.4-0.584 0.555 0 1.023 0.195 1.406 0.584 0.383 0.39 0.574 0.857 0.574 1.402s-0.193 1.011-0.58 1.396 -0.854 0.578-1.4 0.578c-0.539 0-1.004-0.194-1.395-0.584S57.094 265.691 57.094 265.154zM76.641 277.137v2.613h-5.449v-0.896c-0.977 0.707-2.008 1.061-3.094 1.061 -1.125 0-2.096-0.32-2.912-0.961s-1.225-1.5-1.225-2.578c0-1.086 0.43-1.996 1.289-2.73s1.969-1.102 3.328-1.102c0.758 0 1.629 0.191 2.613 0.574v-0.691c0-0.578-0.195-1.053-0.586-1.424s-0.914-0.557-1.57-0.557c-0.813 0-1.508 0.297-2.086 0.891l-2.918-0.527c0.844-1.789 2.676-2.684 5.496-2.684 1.094 0 2 0.123 2.719 0.369s1.254 0.564 1.605 0.955 0.6 0.818 0.744 1.283 0.217 1.221 0.217 2.268v4.137H76.641zM71.191 275.555c-0.875-0.547-1.574-0.82-2.098-0.82 -0.414 0-0.791 0.121-1.131 0.363s-0.51 0.594-0.51 1.055c0 0.414 0.137 0.77 0.41 1.066s0.625 0.445 1.055 0.445c0.672 0 1.43-0.395 2.273-1.184V275.555zM77.836 271.02v-2.613h5.355v1.055c1.094-0.82 2.203-1.23 3.328-1.23 2.289 0 3.434 1.461 3.434 4.383v4.523h1.711v2.613h-5.332v-6.867c0-0.617-0.084-1.039-0.252-1.266s-0.443-0.34-0.826-0.34c-0.672 0-1.359 0.246-2.063 0.738v5.121h1.746v2.613h-7.102v-2.613h1.734v-6.117H77.836zM101.977 276.328l2.813 0.902c-1.18 1.852-3.023 2.777-5.531 2.777 -2 0-3.561-0.527-4.682-1.582s-1.682-2.441-1.682-4.16c0-1.75 0.578-3.211 1.734-4.383s2.629-1.758 4.418-1.758c1.297 0 2.418 0.328 3.363 0.984s1.602 1.473 1.969 2.449 0.551 2.066 0.551 3.27H96.48c0.055 1.031 0.381 1.762 0.979 2.191s1.229 0.645 1.893 0.645C100.219 277.664 101.094 277.219 101.977 276.328zM101.285 272.813c-0.084-0.633-0.332-1.172-0.743-1.617s-0.972-0.668-1.683-0.668c-1.328 0-2.102 0.762-2.32 2.285H101.285zM108.035 271.711v-1.77c1.281-0.125 1.922-0.895 1.922-2.309v-0.223h-1.922v-3.961h3.914v3.68c0 1.133-0.119 2.018-0.357 2.654s-0.66 1.117-1.266 1.441S108.957 271.711 108.035 271.711zM113.707 279.75v-3.902h2.648c0.023 0.531 0.27 0.955 0.738 1.271s1.047 0.475 1.734 0.475c0.594 0 1.057-0.104 1.389-0.311s0.498-0.471 0.498-0.791c0-0.297-0.152-0.527-0.457-0.691s-0.902-0.32-1.793-0.47c-1.835-0.299-3.16-0.75-3.973-1.355 -0.813-0.604-1.219-1.407-1.219-2.407 0-0.937 0.383-1.728 1.148-2.371 0.766-0.645 1.781-0.967 3.047-0.967 1.023 0 1.98 0.189 2.871 0.568v-0.393h2.59v3.293h-2.59c-0.234-0.789-1.063-1.184-2.484-1.184 -1.047 0-1.57 0.289-1.57 0.867 0 0.219 0.107 0.385 0.322 0.498s0.764 0.248 1.646 0.404c1.398 0.242 2.445 0.484 3.141 0.727s1.252 0.643 1.67 1.201 0.627 1.229 0.627 2.01c0 1.109-0.396 2.018-1.189 2.725s-1.916 1.061-3.369 1.061c-1.352 0-2.277-0.275-2.777-0.826v0.568H113.707zM133.09 277.711v-12.223h-1.957v-2.039h5.578L141 274.623l4.336-11.174h5.637v2.039h-1.969v12.223h1.969v2.039h-6.141v-2.039h1.945v-12.223l-5.625 14.426h-0.48l-5.566-14.426v12.223h1.793v2.039h-5.766v-2.039H133.09zM154.09 277.77v-7.383h-1.758v-1.98h3.984v9.363h1.758v1.98h-5.742v-1.98H154.09zM153.773 264.551c0-0.359 0.127-0.672 0.381-0.938s0.576-0.398 0.967-0.398c0.367 0 0.684 0.129 0.949 0.387s0.398 0.574 0.398 0.949 -0.133 0.693-0.398 0.955 -0.582 0.393-0.949 0.393c-0.375 0-0.693-0.133-0.955-0.398S153.773 264.918 153.773 264.551zM163.418 268.406v1.371c1.43-1.031 2.734-1.547 3.914-1.547 0.734 0 1.342 0.174 1.822 0.521s0.795 0.773 0.943 1.277 0.223 1.24 0.223 2.209v5.531h1.91v1.98h-4.137v-7.418c0-0.859-0.129-1.42-0.387-1.682s-0.574-0.393-0.949-0.393c-0.984 0-2.098 0.48-3.34 1.441v6.07h1.957v1.98h-6.176v-1.98h1.992v-7.383h-1.992v-1.98H163.418zM174.855 277.77v-7.383h-1.758v-1.98h3.984v9.363h1.758v1.98h-5.742v-1.98H174.855zM174.539 264.551c0-0.359 0.127-0.672 0.381-0.938s0.576-0.398 0.967-0.398c0.367 0 0.684 0.129 0.949 0.387s0.398 0.574 0.398 0.949 -0.133 0.693-0.398 0.955 -0.582 0.393-0.949 0.393c-0.375 0-0.693-0.133-0.955-0.398S174.539 264.918 174.539 264.551zM187.77 277.711v-12.223h-2.109v-2.039h6.668v2.039h-2.004v12.223h4.992v-5.543h2.297v7.582H185.66v-2.039H187.77zM210.258 277.77v1.98h-3.891v-1.383c-1.078 1.047-2.281 1.57-3.609 1.57 -1.031 0-1.928-0.336-2.689-1.008s-1.143-1.531-1.143-2.578c0-1.055 0.404-1.93 1.213-2.625s1.783-1.043 2.924-1.043c1.063 0 2.09 0.32 3.082 0.961v-1.125c0-0.578-0.055-1.023-0.164-1.336s-0.365-0.594-0.768-0.844 -0.928-0.375-1.576-0.375c-1.117 0-1.926 0.445-2.426 1.336l-2.133-0.563c0.945-1.766 2.578-2.648 4.898-2.648 0.852 0 1.588 0.115 2.209 0.346s1.084 0.527 1.389 0.891 0.51 0.756 0.615 1.178 0.158 1.094 0.158 2.016v5.25H210.258zM206.145 275.531c-0.961-0.75-1.934-1.125-2.918-1.125 -0.617 0-1.133 0.18-1.547 0.539s-0.621 0.824-0.621 1.395c0 0.531 0.182 0.977 0.545 1.336s0.857 0.539 1.482 0.539c1.078 0 2.098-0.453 3.059-1.359V275.531zM211.195 279.75v-1.98h2.016v-12.34h-2.016v-1.98h4.195v6.563c1.117-1.281 2.488-1.922 4.113-1.922 1.563 0 2.873 0.537 3.932 1.611s1.588 2.49 1.588 4.248c0 1.688-0.518 3.107-1.553 4.26s-2.361 1.729-3.979 1.729c-0.906 0-1.734-0.195-2.484-0.586s-1.289-0.824-1.617-1.301v1.699H211.195zM215.461 274.102c0 1.18 0.361 2.115 1.084 2.807s1.557 1.037 2.502 1.037c0.992 0 1.848-0.367 2.566-1.102s1.078-1.719 1.078-2.953c0-1.195-0.357-2.123-1.072-2.783s-1.553-0.99-2.514-0.99c-0.945 0-1.789 0.342-2.531 1.025S215.461 272.813 215.461 274.102z"/><polygon class="st1" points="152.328,36.292 118.359,36.276 118.359,25.438 152.328,25.454  "/><polygon class="st1" points="155.469,118.844 151.375,114.297 152.391,118.547  "/><rect x="87.997" y="25.531" class="st2" width="26.371" height="5.087"/><rect x="156.319" y="25.531" class="st2" width="26.371" height="5.087"/></svg>