<svg version="1.1" xmlns="http://www.w3.org/2000/svg" x="0px" y="0px" viewBox="0 0 270.75 305.25" xml:space="preserve" enable-background="new 0 0 270.75 305.25"><style type="text/css">
	.st0{enable-background:new    ;}
	.st1{fill-rule:evenodd;clip-rule:evenodd;fill:#FFFFFF;}
	.st2{fill:#1A1A1A;}
	.st3{fill-rule:evenodd;clip-rule:evenodd;fill:#A3620A;}
	.st4{fill:#FFFFFF;}
	.st5{font-family:'Rockwell-Bold';}
	.st6{font-size:24;}
	.st7{font-family:'Rockwell';}
</style><g class="st0"><rect x="0.375" y="-0.375" class="st1" width="270" height="306"/></g><path class="st2" d="M152.319 30.531l0 82.9v5h2.779c10.757 12.137 72.035 83.545 86.225 112.385 1.608 3.268 2.083 5.872 1.302 7.142 -1.04 1.694-4.709 2.304-6.194 2.322H34.255c-1.139 0-4.791-0.558-5.848-2.268 -0.881-1.426-0.324-4.369 1.529-8.076 15.742-31.484 86.479-112.398 87.192-113.212l1.239-1.414v-1.88 -82.9H152.319M157.319 25.531h-43.951v87.9c0 0-71.688 81.842-87.903 114.27 -8.79 17.58 8.79 17.58 8.79 17.58h202.177c0 0 17.581 0 9.378-16.672 -15.947-32.413-88.332-115.178-88.491-115.178 0 0 0 0 0 0V25.531L157.319 25.531z"/><polygon class="st3" points="179.25,154.5 92.25,154.5 32.25,233.25 92.25,233.25 179.25,233.25 239.25,233.25    "/><path class="st4" d="M96.75 179.25c-8.284 0-15 6.716-15 15 0 8.284 6.716 15 15 15 8.284 0 15-6.716 15-15C111.75 185.966 105.034 179.25 96.75 179.25zM141.375 177c3.107 0 5.625-2.518 5.625-5.625 0-3.107-2.518-5.625-5.625-5.625 -3.107 0-5.625 2.518-5.625 5.625C135.75 174.482 138.268 177 141.375 177zM135.75 201c-6.213 0-11.25 5.037-11.25 11.25s5.037 11.25 11.25 11.25S147 218.463 147 212.25 141.963 201 135.75 201z"/><text transform="matrix(1 0 0 1 35.2498 279.7498)"><tspan x="0" y="0" class="st5 st6">Diane’s </tspan><tspan x="97.219" y="0" class="st7 st6">Mini Lab</tspan></text><rect x="118.359" y="25.442" class="st1" width="33.969" height="5.179"/><polygon class="st1" points="155.469,118.844 151.375,114.297 152.391,118.547  "/><rect x="87.997" y="25.531" class="st2" width="26.371" height="5.087"/><rect x="156.319" y="25.531" class="st2" width="26.371" height="5.087"/></svg>