<svg version="1.1" xmlns="http://www.w3.org/2000/svg" x="0" y="0" viewBox="0 0 375 375" xml:space="preserve" enable-background="new 0 0 375 375"><style type="text/css">
	.st0{fill-rule:evenodd;clip-rule:evenodd;}
</style><path class="st0" d="M104.1 19.6c-39.2 19.5-70.7 52.4-88.4 92.7l192 0.2L104.1 19.6zM255.5 12.7C234.4 4.5 211.5 0 187.5 0c-27.1 0-52.8 5.7-76 16.1l143.8 132.9L255.5 12.7zM359.4 112.5c-18.8-43.1-53.4-77.7-96.4-96.6l-0.6 192.7 0-0.2L359.4 112.5zM12.6 119.8C4.5 140.8 0 163.6 0 187.5c0 26.4 5.5 51.6 15.4 74.4L148.3 120.3 12.6 119.8zM268.2 356.8c40.7-19.4 73.3-53.1 91.3-94.6l-192.1 0.3L268.2 356.8zM362.5 120L225.9 255l136.7-0.3C370.6 233.8 375 211.2 375 187.5 375 163.7 370.6 140.9 362.5 120zM122.1 363.3C142.5 370.9 164.5 375 187.5 375c26 0 50.8-5.3 73.3-14.9L120.4 226.9 122.1 363.3zM18.7 269.3c19.8 40.8 53.9 73.3 95.8 91l-2.1-192.7L18.7 269.3z"/></svg>